<?xml version="1.0" encoding="utf-8"?>
<!-- Generator: Adobe Illustrator 21.0.0, SVG Export Plug-In . SVG Version: 6.00 Build 0)  -->
<svg version="1.0" id="Capa_1" xmlns="http://www.w3.org/2000/svg" xmlns:xlink="http://www.w3.org/1999/xlink" x="0px" y="0px"
	 viewBox="0 0 203 76" enable-background="new 0 0 203 76" xml:space="preserve">
<path fill-rule="evenodd" clip-rule="evenodd" fill="#FFFFFF" d="M53.7,17.3c0.4,0,0.8,0.3,0.8,0.7c0,0.4-0.4,0.7-0.8,0.7
	c-0.4,0-0.8-0.3-0.8-0.7C52.9,17.6,53.3,17.3,53.7,17.3 M51.7,15.5c0.7-0.4,2.6-0.4,3.6-0.1c1,0.3,2.4,0.9,2.9,1.3
	c0.6,0.4,2.4,2,2.5,2.4c0.1,0.4,0.2,1.1,0,1.5c-0.2,0.4-0.6,0.8-0.9,1.2c-0.4,0.3-2.3,0.9-2.8,1c-0.5,0.1-1.9,0.3-2.4,0.3
	c-0.5-0.1-3.3-1.3-3.4-1.3c-0.2,0-0.7,1.1-0.7,1.1s-1.5-0.9-1.5-2.7c0.1-1.9,0.6-2.3,0.8-2.6c0.2-0.2,0.7-0.4,0.8-0.7
	C50.8,16.6,51,15.9,51.7,15.5z"/>
<path fill-rule="evenodd" clip-rule="evenodd" fill="#FFFFFF" d="M59.7,22.8c0.7-0.5,1.2-1.3,1.3-1.3c0.1,0,0.9,0.6,1.7,1.4
	c0.7,0.7,1.2,1.7,1.7,2.3c0.9,1.4,2.6,4.2,3,5.9c0.2,0.9,0.6,4.6,0.2,7.7c-0.3,2.3-0.5,4.7-0.5,4.8c-0.1,0.2-0.5,1.1-0.9,0.8
	c-3.4-2.4-6.5-6.2-8.4-9.9c-0.5-0.9-0.9-1.7-1.3-2.5c-0.8-1.6-1.3-3-1.7-4.1c-0.5-1.4-0.7-2.4-0.7-2.7c0-0.7,0.2-1.2,0.3-1.3
	c0.1,0,0.4,0,0.8,0.1c0.4,0.1,0.9,0.1,1.3,0C58,23.8,58.4,23.7,59.7,22.8"/>
<path fill-rule="evenodd" clip-rule="evenodd" fill="#FFFFFF" d="M60.4,39.9c0.3-0.1,0.5,0.4,0.8,0.7c0.3,0.3,2.3,2.2,2.7,2.7
	c0.4,0.5,0.9,1,1.1,1.7c0.2,0.6,0.3,1.1-0.2,3.1c-0.5,2-2.6,11.1-3.9,15.1c-1.3,4.1-1.4,5-1.5,5.3c-0.1,0.3-0.2,0.6-0.7,0.6
	c-0.5,0-0.7-0.2-0.8-0.8c-0.1-0.6-0.2-3,0-5.2c0.2-2.2,0.8-5.9,0.8-8.1c0-2.2-0.3-3.3-0.2-4.8c0.1-1.5,0.7-6.1,1.1-7.4
	C59.9,41.4,60.1,40,60.4,39.9"/>
<path fill-rule="evenodd" clip-rule="evenodd" fill="#FFFFFF" d="M45,24.6c0-0.7,0.5-0.9,1.4-1c0.9-0.1,1.8,0,2.2,0.2
	c0.5,0.2,2,0.9,2.3,1.1c0.3,0.2,1.4,1.4,1.9,2c0.5,0.6,1.6,2,2.1,3.5c0.5,1.5,0.5,2.1,0.5,2.3c0,0.2-0.9,1.5-1.3,1.9
	c-0.5,0.4-1.6,2.1-4.4,1.9c-2.7-0.2-4-2.4-4.7-2.8c-0.7-0.5-0.8-0.7-1.6-1c-0.7-0.3-0.8-0.6-0.7-1c0.1-0.4,0.4-0.8,1.3-0.8
	c0.9,0,1.9,0.3,1.9,0.3s-0.3-0.4-0.9-0.6c-0.6-0.2-1.8-0.2-2.6-0.4C41.8,30,42,29.5,42,29.4c0-0.1,0-0.8,1-0.9
	c1-0.1,3.2-0.1,3.2-0.1s-2.9-0.5-3.2-0.6c-0.3-0.1-0.5-0.4-0.5-0.7c0-0.3,0.1-0.9,0.8-1c0.7-0.1,1.2-0.2,1.9-0.2
	c0.7,0,2.7,0.4,2.7,0.4s0-0.3-0.7-0.5C46.6,25.4,45,25.3,45,24.6"/>
<path fill-rule="evenodd" clip-rule="evenodd" fill="#FFFFFF" d="M47.9,38.5c-0.1-0.6,0-0.8,0.2-0.9c0.1-0.1,2.1-0.5,2.8-0.6
	c0.7-0.1,2.3-0.2,2.5-0.4c0.2-0.2,0.6-0.2,1-0.6c0.4-0.4,1.5-1.5,1.9-1.5c0.5-0.1,0.8-0.2,1.2,0.4c0.4,0.6,0.5,1,0.3,1.4
	c-0.2,0.4-0.9,1.6-2.4,2.4c-1.5,0.8-1.9,0.9-2.4,0.9c-0.6,0-3,0.3-3.9,0.1C48,39.5,47.9,39.1,47.9,38.5"/>
<path fill-rule="evenodd" clip-rule="evenodd" fill="#FFFFFF" d="M48.8,40.5c0.9,0,3.8-0.1,4.3-0.1c0.5-0.1,1.5-0.3,2.2-0.8
	c0.7-0.5,2.3-1.6,2.5-1.5c0.2,0,0.9,0.2,0.9,0.8c0,0.6,0,1.5-1.1,2.7c-1.1,1.1-3.2,1.4-4.5,1.6c-1.2,0.2-2.4,0.4-2.9,0.3
	c-0.4,0-2.2-0.3-2.2-0.9C48,41.9,47.9,40.5,48.8,40.5"/>
<path fill-rule="evenodd" clip-rule="evenodd" fill="#FFFFFF" d="M57.9,43.1c0.2-0.1,0.1,3.4-0.3,5.4c-0.5,2-2,8.1-2.2,8.6
	c-0.3,0.5-2.4,1.5-3,1.8c-0.7,0.3-2.3,0.9-2.4,0.9c-0.1,0-0.9,0.4-0.8-0.6c0-1,0.2-5.6-0.1-8.8c-0.3-3.2-0.3-4.5-0.4-4.9
	c0-0.4-0.1-1.1,0.6-1.1c0.7,0,2.7,0,4.2-0.2C54.8,43.9,57.7,43.2,57.9,43.1"/>
<path fill-rule="evenodd" clip-rule="evenodd" fill="#FFFFFF" d="M28.5,49.7c0.1,0,0.4,0.5,0.6,0.7c0.1,0.2,2.9,4,6.9,4.9
	c4,0.8,5.3-0.1,5.7-0.6c0.4-0.5,1.3-2.9,1.5-3.6c0.2-0.6,0.7-1.3,1.7-1.5c0.4-0.1,0.9-0.2,1.4-0.2c0.8,0,1.6,0.1,1.9,0.3
	c0.4,0.4,0.5,3.4,0.3,5c-0.2,1.7-0.6,4.8-0.7,5.1c-0.1,0.2-1.7,1.1-5.1,1.1c-3.4,0.1-9.6-1-12.8-2.8c-3.3-1.7-4.6-3-5.9-4.3
	c-1.3-1.3-1-1.2-0.9-1.5c0.1-0.3,0.4-0.9,0.5-0.9c0.2,0,1.2-0.1,2.1-0.3c0.8-0.2,2-0.4,2.4-0.8C28.3,49.8,28.4,49.7,28.5,49.7"/>
<path fill-rule="evenodd" clip-rule="evenodd" fill="#FFFFFF" d="M63.6,58.6c0.3,0.2,1.3-0.3,2.8-1.8c1.5-1.5,2-2.3,2.6-3.1
	c0.6-0.8,3.2-5.4,4.1-9.8c1-4.4,0.9-5.7,0.9-7.7c0-2-0.8-8.2-2.2-11.3c-1.3-3-2.6-6.5-5.3-8.9c-2.7-2.5-7.6-6-13.6-7.6
	c-6-1.5-7.5-1.4-9.4-1.4c-1.9-0.1-6.9,0.3-10,0.9c-3.1,0.6-4.1,1-5,1.2c-0.9,0.2-9.3,4-13,10.1c-3.6,6.2-4.4,13.6-4.2,17.5
	c0.2,3.9,1.2,14.5,6.6,20.6c5.4,6.1,12.1,8.8,22.8,9.3c10.7,0.6,16.2-3.7,16.2-3.7l0.7-5.3c0,0-7.4,4-15.5,4.2
	c-8.1,0.1-15.6-2.9-20.1-8c-4.5-5.1-6-15-5.3-22c0.7-7,3.8-14.1,13.4-17.7c9.6-3.7,21.2-0.7,24.4,0.2c3.2,0.9,12,6.7,13.8,17.3
	S66.8,47.1,66,49c-0.8,2-2,4-2.2,5.7C63.6,56.4,63.2,58.4,63.6,58.6"/>
<path fill-rule="evenodd" clip-rule="evenodd" fill="#FFFFFF" d="M23.8,42.9c0.7-0.1,1.8,0.6,1.8,1.2c0,0.6-0.3,1.3-1.1,1.5
	c-0.8,0.1-2.1,0.2-2.4-0.6c-0.3-0.8,0-1.5,0.5-1.8C23.1,43,23.1,43,23.8,42.9 M23.4,42.5c1.5,0,3.1,1.2,3.1,2.5
	c0,1.4-0.8,2.2-2.2,2.1c-1.4-0.1-3.2-0.7-3-2.7C21.5,42.6,23.4,42.5,23.4,42.5z M34.3,35.5c0.9-0.8,2.4-0.5,2.5-0.5
	c0,0,0,0.4-0.3,0.8c-0.2,0.4-0.6,0.8-0.9,1.1c-0.8,0.8-2,0.9-2.2,0.7C33.1,37.5,33.4,36.3,34.3,35.5z M43,37.9
	c0.2,0.2-0.1,0.7-0.2,0.8c-0.1,0.1-0.6,0.5-0.9,0.2c-0.3-0.3-0.2-0.7,0.3-0.9C42.7,37.7,42.8,37.7,43,37.9z M40.5,13.4
	c0.6,0,1.6,2.4,1.8,3.8c0.2,1.4,0.5,3.5-0.4,6.1c-1,2.7-2.5,4.8-3,4.9c-0.5,0.1-1,0.1-1,0.1s-2-1.6-4.1-1.5
	c-2.1,0.2-3.7,0.9-5.5,2.4c-1.8,1.6-2.7,3.2-2.9,4.4c-0.2,1.2-0.1,3.3,0.3,4.3c0.5,1.1,0.7,0.9,0.7,0.9s0.3,0.1,0.4,0
	c0.1-0.1-1-3.3-0.3-5.3c0.7-2,1.5-3.8,5.1-5.3c3.3-1.4,4.7,0.7,5.6,1.3c0.9,0.6,1.6,1.1,2.2,1.5c0.6,0.4,3.9,2.6,5.2,4.2
	c1.4,1.6,1.5,1.7,1.4,2.3c-0.2,0.6-1,1.3-0.9,1.7c0,0.4,0.8,1.4,0.4,2c-0.3,0.6-0.6,0.9-1.5,1.3c-0.9,0.4-1.2,1-1.2,1.2
	c0,0.1,0.4,0.1,0.8,0c0.3-0.1,0.6-0.4,1.3-0.3c0.6,0.1,1.4,0.2,1.7,1.7c0.3,1.5,0.3,2.2-0.3,2.9c-0.5,0.7-1.2,0.7-1.9,1
	c-0.7,0.3-1.4,0.3-1.7,0.6c-0.3,0.3-1,1.6-1.2,2.9c-0.3,1.3-0.8,1.9-1,2c-0.2,0.1-3.8,0.3-5.5-0.4c-1.7-0.7-2.5-1.3-4.1-2.8
	c-1.5-1.5-2.2-2.4-2.2-2.4h-0.7c0,0-1.6,1.7-3.7,1.4c-2.1-0.3-5.7-1.6-5.6-6c0.1-4.4,3-4.7,3.1-5c0.1-0.3,0.2-0.7-0.4-0.7
	c-0.6,0-1.6,0.3-2.1,0.7c-0.6,0.4-1.7,1.2-1.8,0.4c-0.1-0.8,0.1-3,2.2-4c2.1-1,2.5-0.8,2.5-1.6c0-0.8-1.6-0.4-2.1-0.2
	c-0.5,0.2-1.7,0.8-1.8,0.9c-0.1,0.1-0.9,0.7-0.9-0.2c0-0.9,0.3-2.6,2-3.6c1.7-1,3.6-0.6,3.6-1.2c0.1-0.6-0.7-0.9-1.4-0.8
	c-0.7,0.1-2.5,0.7-2.9,1c-0.4,0.3-1,0.4-0.8-0.5c0.2-0.9,1-3,3.1-3.6c2.1-0.6,3.8,0.5,4,0.1c0.2-0.4,0-1.1-0.8-1.5
	c-0.9-0.4-1.5-0.6-2.8-0.2c-1.3,0.4-1.6,0.2-1.4-0.3c0.2-0.5,0.9-3,3.9-3c3.1,0,3.8,2.8,4.6,2.6c0.7-0.2-0.3-2.5-0.9-3.4
	c-0.6-0.9-2.7-2.4-1.9-3c0.8-0.6,2.7-0.3,3.9,0.4c1.2,0.8,1.2,0.9,1.5,1.3c0.3,0.4,1.5,3.1,1.7,3c0.3-0.1,0.4-1.6,0.1-2.8
	c-0.2-1.1-1.7-3.6-2.1-4c-0.5-0.4-0.3-0.8,0.5-0.8c0.8-0.1,3,0.2,4.3,1.8c1.2,1.5,1.3,4.2,1.1,4.6c-0.1,0.4-0.1,1.4,0.5,0.8
	c0.5-0.6,1.7-2.5,2-4.4C39.8,15.3,39.9,13.4,40.5,13.4z"/>
<path fill="#FFFFFF" d="M89.8,53.2V40.8c-0.4,0-1.3,0.1-1.7,0v-2.1c1.1-0.2,2.2-0.7,2.7-1.2h1.9v15.7H89.8z"/>
<path fill="#FFFFFF" d="M100,49.7c0.1,0.6,0.3,1.5,1.5,1.5c1.9,0,1.8-3.6,1.8-5.1c-0.5,0.9-1.4,1.2-2.4,1.2c-2.3,0-3.8-1.5-3.8-4.7
	c0-3.2,1.5-5.2,4.5-5.2c3.1,0,4.5,1.9,4.5,6.7c0,6.9-1.2,9.3-4.8,9.3c-3.8,0-4-3.2-4-3.7H100z M99.9,42.3c0,1.8,0.5,2.7,1.7,2.7
	c1.1,0,1.6-0.8,1.6-2.4s-0.3-2.9-1.7-2.9C100.4,39.7,99.9,40.6,99.9,42.3z"/>
<path fill="#FFFFFF" d="M112.8,49.7c0.1,0.6,0.3,1.5,1.5,1.5c1.9,0,1.8-3.6,1.8-5.1c-0.5,0.9-1.4,1.2-2.4,1.2
	c-2.3,0-3.8-1.5-3.8-4.7c0-3.2,1.5-5.2,4.5-5.2c3.1,0,4.5,1.9,4.5,6.7c0,6.9-1.2,9.3-4.8,9.3c-3.8,0-4-3.2-4-3.7H112.8z M112.7,42.3
	c0,1.8,0.5,2.7,1.7,2.7c1.1,0,1.6-0.8,1.6-2.4s-0.3-2.9-1.7-2.9C113.2,39.7,112.7,40.6,112.7,42.3z"/>
<path fill="#FFFFFF" d="M122.4,53.2V53c0-2.7,1.1-4.5,3.5-7.2c1.8-2,2.2-2.6,2.2-4.2c0-1.2-0.3-2-1.4-2c-1.2,0-1.5,1-1.6,2.5h-2.8
	c0-2.4,1.1-4.8,4.4-4.8c3,0,4.2,1.8,4.2,4.4c0,1.9-0.5,2.8-2.5,5c-1.4,1.5-2.6,2.9-2.9,4h5.8l-0.4,2.4H122.4z"/>
<path fill="#FFFFFF" d="M146.5,45.7v2.4h-5.2v-2.4H146.5z"/>
<path fill="#FFFFFF" d="M149.5,53.2V53c0-2.7,1.1-4.5,3.5-7.2c1.8-2,2.2-2.6,2.2-4.2c0-1.2-0.3-2-1.4-2c-1.2,0-1.5,1-1.6,2.5h-2.8
	c0-2.4,1.1-4.8,4.4-4.8c3,0,4.2,1.8,4.2,4.4c0,1.9-0.5,2.8-2.5,5c-1.4,1.5-2.6,2.9-2.9,4h5.8l-0.4,2.4H149.5z"/>
<path fill="#FFFFFF" d="M171.1,45.2c0,6-1.4,8.2-4.6,8.2c-3.2,0-4.6-2.3-4.6-8.2c0-6.3,1.9-7.9,4.6-7.9
	C169.4,37.4,171.1,39.1,171.1,45.2z M164.8,45.1c0,3.9,0.2,5.9,1.7,5.9c1.5,0,1.7-1.9,1.7-5.9c0-4.1-0.2-5.4-1.7-5.4
	C165.1,39.7,164.8,41.3,164.8,45.1z"/>
<path fill="#FFFFFF" d="M176.3,53.2V40.8c-0.4,0-1.3,0.1-1.7,0v-2.1c1.1-0.2,2.2-0.7,2.7-1.2h1.9v15.7H176.3z"/>
<path fill="#FFFFFF" d="M191.6,37.6v2.2c-2,3.5-3.6,8.5-4.2,13.4h-3c0.7-5.1,2.7-10.3,4.4-13.2h-5.5v-2.4H191.6z"/>
<path fill="#FFFFFF" d="M91.2,63.2l-0.9-2.3h0l-0.9,2.3h-1.2l1.5-3.2l-1.4-3h1.3l0.9,2.1l0,0l0.9-2.1h1.2l-1.4,2.9l1.5,3.3H91.2z"/>
<path fill="#FFFFFF" d="M98.6,63.2l-0.9-2.3h0l-0.9,2.3h-1.2l1.5-3.2l-1.4-3h1.3l0.9,2.1l0,0l0.9-2.1h1.2l-1.4,2.9l1.5,3.3H98.6z"/>
<path fill="#FFFFFF" d="M104.5,63.2l-1.5-6.2h1.2l0.6,2.6c0.2,0.8,0.3,1.8,0.4,2.4h0c0.1-0.6,0.3-1.6,0.5-2.4l0.6-2.7h1.2l-1.6,6.2
	H104.5z"/>
<path fill="#FFFFFF" d="M116.9,61.6l-0.3,1.6h-1.1l1.4-6.2h1.4l1.5,6.2h-1.2l-0.3-1.6H116.9z M118.1,60.7c-0.2-1.2-0.4-2.1-0.5-2.7
	h0c-0.1,0.6-0.3,1.5-0.5,2.7H118.1z"/>
<path fill="#FFFFFF" d="M123.5,63.2V57h1.3c1.3,3.4,1.5,4.1,1.6,4.4h0c0-0.7-0.1-1.7-0.1-2.7V57h1v6.2h-1.2
	c-1.3-3.7-1.6-4.3-1.6-4.6h0c0,0.8,0,1.7,0,2.8v1.8H123.5z"/>
<path fill="#FFFFFF" d="M132.7,57v6.2h-1.1V57H132.7z"/>
<path fill="#FFFFFF" d="M138,63.2l-1.5-6.2h1.2l0.6,2.6c0.2,0.8,0.3,1.8,0.4,2.4h0c0.1-0.6,0.3-1.6,0.5-2.4l0.6-2.7h1.2l-1.6,6.2
	H138z"/>
<path fill="#FFFFFF" d="M147.7,60.4h-2v1.8h2.2l-0.1,1h-3.2V57h3.2v1h-2.1v1.5h2V60.4z"/>
<path fill="#FFFFFF" d="M152.9,60.5v2.7h-1.1V57h1.9c1.1,0,1.8,0.6,1.8,1.7c0,0.9-0.5,1.3-0.8,1.4c0.5,0.2,0.7,0.6,0.7,1.6v0.2
	c0,0.7,0,1,0.1,1.3h-1.1c-0.1-0.3-0.1-0.8-0.1-1.3v-0.2c0-0.8-0.2-1.1-0.9-1.1H152.9z M152.9,59.6h0.5c0.7,0,0.9-0.3,0.9-0.9
	c0-0.5-0.3-0.9-0.8-0.9h-0.6V59.6z"/>
<path fill="#FFFFFF" d="M160.3,61.5c0.1,0.5,0.3,1,0.8,1c0.5,0,0.7-0.3,0.7-0.8c0-0.5-0.2-0.8-1-1.2c-1.1-0.5-1.5-1-1.5-1.9
	c0-1,0.6-1.7,1.8-1.7c1.4,0,1.7,0.9,1.8,1.8h-1.1c0-0.4-0.1-0.9-0.7-0.9c-0.4,0-0.6,0.3-0.6,0.7c0,0.5,0.2,0.7,0.9,1
	c1.1,0.5,1.6,1,1.6,2.1c0,1-0.6,1.8-1.9,1.8c-1.4,0-1.9-0.9-1.9-1.8H160.3z"/>
<path fill="#FFFFFF" d="M168.1,61.6l-0.3,1.6h-1.1l1.4-6.2h1.4l1.5,6.2h-1.2l-0.3-1.6H168.1z M169.3,60.7c-0.2-1.2-0.4-2.1-0.5-2.7
	h0c-0.1,0.6-0.3,1.5-0.5,2.7H169.3z"/>
<path fill="#FFFFFF" d="M175.8,60.5v2.7h-1.1V57h1.9c1.1,0,1.8,0.6,1.8,1.7c0,0.9-0.5,1.3-0.8,1.4c0.5,0.2,0.7,0.6,0.7,1.6v0.2
	c0,0.7,0,1,0.1,1.3h-1.1c-0.1-0.3-0.1-0.8-0.1-1.3v-0.2c0-0.8-0.2-1.1-0.9-1.1H175.8z M175.8,59.6h0.5c0.7,0,0.9-0.3,0.9-0.9
	c0-0.5-0.3-0.9-0.8-0.9h-0.6V59.6z"/>
<path fill="#FFFFFF" d="M183.5,57v6.2h-1.1V57H183.5z"/>
<path fill="#FFFFFF" d="M191.6,60c0,2.3-0.6,3.3-2.1,3.3c-1.3,0-2-1-2-3.3c0-2.2,0.8-3.1,2-3.1C191,56.9,191.6,57.9,191.6,60z
	 M188.7,60c0,1.5,0.2,2.4,0.9,2.4c0.7,0,0.9-0.8,0.9-2.4c0-1.4-0.2-2.2-0.9-2.2S188.7,58.6,188.7,60z"/>
<path fill="#FFFFFF" d="M96.1,28c-4.4,0-8-2.4-8-7.6c0-4.8,3.2-7.7,8.3-7.7c2,0,4.1,0.6,5.1,0.6c0,0.3,0.1,0.9,0.1,1.3
	c0,1.1-0.2,2.9-0.3,3.3h-0.6c0-3-1.6-4.1-4.3-4.1c-3.6,0-5.8,2.6-5.8,6.6c0,4.1,2.5,6.5,5.9,6.5c2.6,0,3.9-1.5,4.4-3.3h0.6
	c0,0.8-0.2,2.4-0.6,3.3C99.7,27.6,98.1,28,96.1,28z"/>
<path fill="#FFFFFF" d="M104.2,20.5c0-4.8,3.4-7.8,7.9-7.8c4.6,0,7.7,3.1,7.7,7.5c0,4.7-3.5,7.7-7.8,7.7
	C107.2,28,104.2,24.9,104.2,20.5z M117.2,20.4c0-3.4-1.6-6.6-5.5-6.6c-3.5,0-5.1,2.8-5.1,6.5c0,3.5,1.7,6.7,5.5,6.7
	C115.7,26.9,117.2,23.9,117.2,20.4z"/>
<path fill="#FFFFFF" d="M125,15.9l-0.1,0l0,7.7c0,3.2,0.2,3.4,1.2,3.5l1,0.1v0.5h-5.7v-0.5l1-0.1c1-0.1,1.2-0.4,1.2-3.5l0-8.2
	c0-1.2-0.6-1.7-1.6-1.8l-0.7-0.1V13h3.6c0.3,0,0.8,0.4,1.3,0.9c2.3,2.5,5.7,6.5,8.3,9.7l0.1,0l-0.1-7c0-2.6-0.3-2.9-1.2-3l-1-0.1V13
	h5.5v0.5l-0.9,0.1c-1,0.1-1.1,0.6-1.1,3.5v10.6c-0.2,0.1-0.6,0.2-0.9,0.2C132.1,24.1,129.1,20.5,125,15.9z"/>
<path fill="#FFFFFF" d="M138.3,27.7v-0.5c1.2-0.3,1.6-0.5,2.3-2l5.3-12.3c0.2-0.1,0.4-0.1,0.5-0.1c0.9,2.3,4.7,12.1,5.5,13.4
	c0.5,0.8,0.9,0.9,1.6,1v0.5h-6.3v-0.5l0.8,0c0.9-0.1,1.2-0.3,1.2-0.8c0-0.4-0.2-1-0.6-2.1l-0.6-1.7c-0.5,0-4.4,0-4.9,0l-0.5,1.3
	c-0.3,0.8-0.8,2-0.8,2.4c0,0.6,0.4,0.7,1.9,0.9v0.5H138.3z M145.6,16.7h-0.1c-0.6,1.5-1.4,3.4-2,4.9l4.1,0L145.6,16.7z"/>
<path fill="#FFFFFF" d="M154.8,27.2l1-0.1c0.9-0.1,1-0.5,1-3.5v-6.5c0-3-0.2-3.4-1-3.5l-1-0.1v-0.5c1.5-0.1,4.2-0.1,5.5-0.1
	c3.2,0,4.8,1.3,4.8,3.4c0,1.6-1.3,2.8-2.7,3.2v0.1c2.2,0.3,3.7,1.5,3.7,3.6c0,2.6-2.2,4.4-5.6,4.4h-5.6V27.2z M160.3,19.4
	c1.7-0.1,2.4-1.2,2.4-2.7c0-1.8-0.9-2.7-2.2-2.7c-0.5,0-1.1,0.1-1.4,0.2v5.3L160.3,19.4z M163.6,23.8c0-1.9-1.1-3.5-3.1-3.5l-1.4,0
	v3.3c0,3,0.3,3.2,1.6,3.2C162.3,26.8,163.6,25.8,163.6,23.8z"/>
<path fill="#FFFFFF" d="M167.9,27.7v-0.5l1-0.1c0.9-0.1,1-0.5,1-3.5v-6.5c0-3-0.2-3.4-1-3.5l-1-0.1V13h6.3v0.5l-1,0.1
	c-0.9,0.1-1,0.5-1,3.5v6.5c0,3,0.1,3.4,1,3.5l1,0.1v0.5H167.9z"/>
<path fill="#FFFFFF" d="M176.1,20.5c0-4.8,3.4-7.8,7.9-7.8c4.6,0,7.7,3.1,7.7,7.5c0,4.7-3.5,7.7-7.8,7.7
	C179.1,28,176.1,24.9,176.1,20.5z M189.1,20.4c0-3.4-1.6-6.6-5.5-6.6c-3.5,0-5.1,2.8-5.1,6.5c0,3.5,1.7,6.7,5.5,6.7
	C187.6,26.9,189.1,23.9,189.1,20.4z"/>
<path fill="#FFFFFF" d="M108.2,33.7c-11.1,0-20.1-0.2-20.1-0.5c0-0.3,9-0.5,20.1-0.5H136v1.1H108.2z"/>
<path fill="#FFFFFF" d="M171.6,32.7c11.1,0,20.1,0.2,20.1,0.5c0,0.3-9,0.5-20.1,0.5h-27.8v-1.1H171.6z"/>
</svg>
