<svg version="1" xmlns="http://www.w3.org/2000/svg" viewBox="0 0 203 76"><path fill-rule="evenodd" clip-rule="evenodd" fill="#FFF" d="M53.7 17.3c.4 0 .8.3.8.7 0 .4-.4.7-.8.7s-.8-.3-.8-.7c0-.4.4-.7.8-.7m-2-1.8c.7-.4 2.6-.4 3.6-.1 1 .3 2.4.9 2.9 1.3.6.4 2.4 2 2.5 2.4.1.4.2 1.1 0 1.5-.2.4-.6.8-.9 1.2-.4.3-2.3.9-2.8 1-.5.1-1.9.3-2.4.3-.5-.1-3.3-1.3-3.4-1.3-.2 0-.7 1.1-.7 1.1S49 22 49 20.2c.1-1.9.6-2.3.8-2.6.2-.2.7-.4.8-.7.2-.3.4-1 1.1-1.4zM59.7 22.8c.7-.5 1.2-1.3 1.3-1.3.1 0 .9.6 1.7 1.4.7.7 1.2 1.7 1.7 2.3.9 1.4 2.6 4.2 3 5.9.2.9.6 4.6.2 7.7-.3 2.3-.5 4.7-.5 4.8-.1.2-.5 1.1-.9.8-3.4-2.4-6.5-6.2-8.4-9.9-.5-.9-.9-1.7-1.3-2.5-.8-1.6-1.3-3-1.7-4.1-.5-1.4-.7-2.4-.7-2.7 0-.7.2-1.2.3-1.3.1 0 .4 0 .8.1s.9.1 1.3 0c1.5-.2 1.9-.3 3.2-1.2M60.4 39.9c.3-.1.5.4.8.7.3.3 2.3 2.2 2.7 2.7.4.5.9 1 1.1 1.7.2.6.3 1.1-.2 3.1s-2.6 11.1-3.9 15.1c-1.3 4.1-1.4 5-1.5 5.3-.1.3-.2.6-.7.6-.5 0-.7-.2-.8-.8-.1-.6-.2-3 0-5.2s.8-5.9.8-8.1c0-2.2-.3-3.3-.2-4.8.1-1.5.7-6.1 1.1-7.4.3-1.4.5-2.8.8-2.9M45 24.6c0-.7.5-.9 1.4-1 .9-.1 1.8 0 2.2.2.5.2 2 .9 2.3 1.1.3.2 1.4 1.4 1.9 2 .5.6 1.6 2 2.1 3.5s.5 2.1.5 2.3c0 .2-.9 1.5-1.3 1.9-.5.4-1.6 2.1-4.4 1.9-2.7-.2-4-2.4-4.7-2.8-.7-.5-.8-.7-1.6-1-.7-.3-.8-.6-.7-1 .1-.4.4-.8 1.3-.8s1.9.3 1.9.3-.3-.4-.9-.6c-.6-.2-1.8-.2-2.6-.4-.6-.2-.4-.7-.4-.8 0-.1 0-.8 1-.9 1-.1 3.2-.1 3.2-.1s-2.9-.5-3.2-.6c-.3-.1-.5-.4-.5-.7 0-.3.1-.9.8-1 .7-.1 1.2-.2 1.9-.2s2.7.4 2.7.4 0-.3-.7-.5c-.6-.4-2.2-.5-2.2-1.2"/><path fill-rule="evenodd" clip-rule="evenodd" fill="#FFF" d="M47.9 38.5c-.1-.6 0-.8.2-.9.1-.1 2.1-.5 2.8-.6.7-.1 2.3-.2 2.5-.4.2-.2.6-.2 1-.6.4-.4 1.5-1.5 1.9-1.5.5-.1.8-.2 1.2.4.4.6.5 1 .3 1.4-.2.4-.9 1.6-2.4 2.4-1.5.8-1.9.9-2.4.9-.6 0-3 .3-3.9.1-1.1-.2-1.2-.6-1.2-1.2"/><path fill-rule="evenodd" clip-rule="evenodd" fill="#FFF" d="M48.8 40.5c.9 0 3.8-.1 4.3-.1.5-.1 1.5-.3 2.2-.8.7-.5 2.3-1.6 2.5-1.5.2 0 .9.2.9.8 0 .6 0 1.5-1.1 2.7-1.1 1.1-3.2 1.4-4.5 1.6-1.2.2-2.4.4-2.9.3-.4 0-2.2-.3-2.2-.9 0-.7-.1-2.1.8-2.1M57.9 43.1c.2-.1.1 3.4-.3 5.4-.5 2-2 8.1-2.2 8.6-.3.5-2.4 1.5-3 1.8-.7.3-2.3.9-2.4.9-.1 0-.9.4-.8-.6 0-1 .2-5.6-.1-8.8-.3-3.2-.3-4.5-.4-4.9 0-.4-.1-1.1.6-1.1s2.7 0 4.2-.2c1.3-.3 4.2-1 4.4-1.1M28.5 49.7c.1 0 .4.5.6.7.1.2 2.9 4 6.9 4.9 4 .8 5.3-.1 5.7-.6.4-.5 1.3-2.9 1.5-3.6.2-.6.7-1.3 1.7-1.5.4-.1.9-.2 1.4-.2.8 0 1.6.1 1.9.3.4.4.5 3.4.3 5-.2 1.7-.6 4.8-.7 5.1-.1.2-1.7 1.1-5.1 1.1-3.4.1-9.6-1-12.8-2.8-3.3-1.7-4.6-3-5.9-4.3-1.3-1.3-1-1.2-.9-1.5.1-.3.4-.9.5-.9.2 0 1.2-.1 2.1-.3.8-.2 2-.4 2.4-.8.2-.5.3-.6.4-.6"/><path fill-rule="evenodd" clip-rule="evenodd" fill="#FFF" d="M63.6 58.6c.3.2 1.3-.3 2.8-1.8 1.5-1.5 2-2.3 2.6-3.1.6-.8 3.2-5.4 4.1-9.8 1-4.4.9-5.7.9-7.7s-.8-8.2-2.2-11.3c-1.3-3-2.6-6.5-5.3-8.9-2.7-2.5-7.6-6-13.6-7.6-6-1.5-7.5-1.4-9.4-1.4-1.9-.1-6.9.3-10 .9-3.1.6-4.1 1-5 1.2-.9.2-9.3 4-13 10.1-3.6 6.2-4.4 13.6-4.2 17.5.2 3.9 1.2 14.5 6.6 20.6 5.4 6.1 12.1 8.8 22.8 9.3 10.7.6 16.2-3.7 16.2-3.7l.7-5.3s-7.4 4-15.5 4.2c-8.1.1-15.6-2.9-20.1-8-4.5-5.1-6-15-5.3-22 .7-7 3.8-14.1 13.4-17.7 9.6-3.7 21.2-.7 24.4.2 3.2.9 12 6.7 13.8 17.3S66.8 47.1 66 49c-.8 2-2 4-2.2 5.7-.2 1.7-.6 3.7-.2 3.9"/><path fill-rule="evenodd" clip-rule="evenodd" fill="#FFF" d="M23.8 42.9c.7-.1 1.8.6 1.8 1.2s-.3 1.3-1.1 1.5c-.8.1-2.1.2-2.4-.6-.3-.8 0-1.5.5-1.8.5-.2.5-.2 1.2-.3m-.4-.4c1.5 0 3.1 1.2 3.1 2.5 0 1.4-.8 2.2-2.2 2.1-1.4-.1-3.2-.7-3-2.7.2-1.8 2.1-1.9 2.1-1.9zm10.9-7c.9-.8 2.4-.5 2.5-.5 0 0 0 .4-.3.8-.2.4-.6.8-.9 1.1-.8.8-2 .9-2.2.7-.3-.1 0-1.3.9-2.1zm8.7 2.4c.2.2-.1.7-.2.8-.1.1-.6.5-.9.2-.3-.3-.2-.7.3-.9.5-.3.6-.3.8-.1zm-2.5-24.5c.6 0 1.6 2.4 1.8 3.8.2 1.4.5 3.5-.4 6.1-1 2.7-2.5 4.8-3 4.9-.5.1-1 .1-1 .1s-2-1.6-4.1-1.5c-2.1.2-3.7.9-5.5 2.4-1.8 1.6-2.7 3.2-2.9 4.4-.2 1.2-.1 3.3.3 4.3.5 1.1.7.9.7.9s.3.1.4 0c.1-.1-1-3.3-.3-5.3s1.5-3.8 5.1-5.3c3.3-1.4 4.7.7 5.6 1.3.9.6 1.6 1.1 2.2 1.5.6.4 3.9 2.6 5.2 4.2 1.4 1.6 1.5 1.7 1.4 2.3-.2.6-1 1.3-.9 1.7 0 .4.8 1.4.4 2-.3.6-.6.9-1.5 1.3s-1.2 1-1.2 1.2c0 .1.4.1.8 0 .3-.1.6-.4 1.3-.3.6.1 1.4.2 1.7 1.7.3 1.5.3 2.2-.3 2.9-.5.7-1.2.7-1.9 1-.7.3-1.4.3-1.7.6-.3.3-1 1.6-1.2 2.9-.3 1.3-.8 1.9-1 2-.2.1-3.8.3-5.5-.4-1.7-.7-2.5-1.3-4.1-2.8-1.5-1.5-2.2-2.4-2.2-2.4H28s-1.6 1.7-3.7 1.4c-2.1-.3-5.7-1.6-5.6-6 .1-4.4 3-4.7 3.1-5 .1-.3.2-.7-.4-.7-.6 0-1.6.3-2.1.7-.6.4-1.7 1.2-1.8.4-.1-.8.1-3 2.2-4s2.5-.8 2.5-1.6-1.6-.4-2.1-.2-1.7.8-1.8.9c-.1.1-.9.7-.9-.2 0-.9.3-2.6 2-3.6s3.6-.6 3.6-1.2c.1-.6-.7-.9-1.4-.8-.7.1-2.5.7-2.9 1-.4.3-1 .4-.8-.5.2-.9 1-3 3.1-3.6 2.1-.6 3.8.5 4 .1.2-.4 0-1.1-.8-1.5-.9-.4-1.5-.6-2.8-.2-1.3.4-1.6.2-1.4-.3.2-.5.9-3 3.9-3 3.1 0 3.8 2.8 4.6 2.6.7-.2-.3-2.5-.9-3.4-.6-.9-2.7-2.4-1.9-3 .8-.6 2.7-.3 3.9.4 1.2.8 1.2.9 1.5 1.3.3.4 1.5 3.1 1.7 3 .3-.1.4-1.6.1-2.8-.2-1.1-1.7-3.6-2.1-4-.5-.4-.3-.8.5-.8.8-.1 3 .2 4.3 1.8 1.2 1.5 1.3 4.2 1.1 4.6-.1.4-.1 1.4.5.8.5-.6 1.7-2.5 2-4.4.6-1.8.7-3.7 1.3-3.7z"/><path fill="#FFF" d="M89.8 53.2V40.8c-.4 0-1.3.1-1.7 0v-2.1c1.1-.2 2.2-.7 2.7-1.2h1.9v15.7h-2.9zM100 49.7c.1.6.3 1.5 1.5 1.5 1.9 0 1.8-3.6 1.8-5.1-.5.9-1.4 1.2-2.4 1.2-2.3 0-3.8-1.5-3.8-4.7s1.5-5.2 4.5-5.2c3.1 0 4.5 1.9 4.5 6.7 0 6.9-1.2 9.3-4.8 9.3-3.8 0-4-3.2-4-3.7h2.7zm-.1-7.4c0 1.8.5 2.7 1.7 2.7 1.1 0 1.6-.8 1.6-2.4s-.3-2.9-1.7-2.9c-1.1 0-1.6.9-1.6 2.6zM112.8 49.7c.1.6.3 1.5 1.5 1.5 1.9 0 1.8-3.6 1.8-5.1-.5.9-1.4 1.2-2.4 1.2-2.3 0-3.8-1.5-3.8-4.7s1.5-5.2 4.5-5.2c3.1 0 4.5 1.9 4.5 6.7 0 6.9-1.2 9.3-4.8 9.3-3.8 0-4-3.2-4-3.7h2.7zm-.1-7.4c0 1.8.5 2.7 1.7 2.7 1.1 0 1.6-.8 1.6-2.4s-.3-2.9-1.7-2.9c-1.1 0-1.6.9-1.6 2.6zM122.4 53.2V53c0-2.7 1.1-4.5 3.5-7.2 1.8-2 2.2-2.6 2.2-4.2 0-1.2-.3-2-1.4-2-1.2 0-1.5 1-1.6 2.5h-2.8c0-2.4 1.1-4.8 4.4-4.8 3 0 4.2 1.8 4.2 4.4 0 1.9-.5 2.8-2.5 5-1.4 1.5-2.6 2.9-2.9 4h5.8l-.4 2.4h-8.5zM146.5 45.7v2.4h-5.2v-2.4h5.2zM149.5 53.2V53c0-2.7 1.1-4.5 3.5-7.2 1.8-2 2.2-2.6 2.2-4.2 0-1.2-.3-2-1.4-2-1.2 0-1.5 1-1.6 2.5h-2.8c0-2.4 1.1-4.8 4.4-4.8 3 0 4.2 1.8 4.2 4.4 0 1.9-.5 2.8-2.5 5-1.4 1.5-2.6 2.9-2.9 4h5.8l-.4 2.4h-8.5zM171.1 45.2c0 6-1.4 8.2-4.6 8.2-3.2 0-4.6-2.3-4.6-8.2 0-6.3 1.9-7.9 4.6-7.9 2.9.1 4.6 1.8 4.6 7.9zm-6.3-.1c0 3.9.2 5.9 1.7 5.9s1.7-1.9 1.7-5.9c0-4.1-.2-5.4-1.7-5.4-1.4 0-1.7 1.6-1.7 5.4zM176.3 53.2V40.8c-.4 0-1.3.1-1.7 0v-2.1c1.1-.2 2.2-.7 2.7-1.2h1.9v15.7h-2.9zM191.6 37.6v2.2c-2 3.5-3.6 8.5-4.2 13.4h-3c.7-5.1 2.7-10.3 4.4-13.2h-5.5v-2.4h8.3zM91.2 63.2l-.9-2.3-.9 2.3h-1.2l1.5-3.2-1.4-3h1.3l.9 2.1.9-2.1h1.2l-1.4 2.9 1.5 3.3h-1.5zM98.6 63.2l-.9-2.3-.9 2.3h-1.2l1.5-3.2-1.4-3H97l.9 2.1.9-2.1h1.2l-1.4 2.9 1.5 3.3h-1.5zM104.5 63.2L103 57h1.2l.6 2.6c.2.8.3 1.8.4 2.4.1-.6.3-1.6.5-2.4l.6-2.7h1.2l-1.6 6.2h-1.4zM116.9 61.6l-.3 1.6h-1.1l1.4-6.2h1.4l1.5 6.2h-1.2l-.3-1.6h-1.4zm1.2-.9c-.2-1.2-.4-2.1-.5-2.7-.1.6-.3 1.5-.5 2.7h1zM123.5 63.2V57h1.3c1.3 3.4 1.5 4.1 1.6 4.4 0-.7-.1-1.7-.1-2.7V57h1v6.2h-1.2c-1.3-3.7-1.6-4.3-1.6-4.6v4.6h-1zM132.7 57v6.2h-1.1V57h1.1zM138 63.2l-1.5-6.2h1.2l.6 2.6c.2.8.3 1.8.4 2.4.1-.6.3-1.6.5-2.4l.6-2.7h1.2l-1.6 6.2H138zM147.7 60.4h-2v1.8h2.2l-.1 1h-3.2V57h3.2v1h-2.1v1.5h2v.9zM152.9 60.5v2.7h-1.1V57h1.9c1.1 0 1.8.6 1.8 1.7 0 .9-.5 1.3-.8 1.4.5.2.7.6.7 1.6v.2c0 .7 0 1 .1 1.3h-1.1c-.1-.3-.1-.8-.1-1.3v-.2c0-.8-.2-1.1-.9-1.1h-.5zm0-.9h.5c.7 0 .9-.3.9-.9 0-.5-.3-.9-.8-.9h-.6v1.8zM160.3 61.5c.1.5.3 1 .8 1s.7-.3.7-.8-.2-.8-1-1.2c-1.1-.5-1.5-1-1.5-1.9 0-1 .6-1.7 1.8-1.7 1.4 0 1.7.9 1.8 1.8h-1.1c0-.4-.1-.9-.7-.9-.4 0-.6.3-.6.7 0 .5.2.7.9 1 1.1.5 1.6 1 1.6 2.1 0 1-.6 1.8-1.9 1.8-1.4 0-1.9-.9-1.9-1.8h1.1zM168.1 61.6l-.3 1.6h-1.1l1.4-6.2h1.4l1.5 6.2h-1.2l-.3-1.6h-1.4zm1.2-.9c-.2-1.2-.4-2.1-.5-2.7-.1.6-.3 1.5-.5 2.7h1zM175.8 60.5v2.7h-1.1V57h1.9c1.1 0 1.8.6 1.8 1.7 0 .9-.5 1.3-.8 1.4.5.2.7.6.7 1.6v.2c0 .7 0 1 .1 1.3h-1.1c-.1-.3-.1-.8-.1-1.3v-.2c0-.8-.2-1.1-.9-1.1h-.5zm0-.9h.5c.7 0 .9-.3.9-.9 0-.5-.3-.9-.8-.9h-.6v1.8zM183.5 57v6.2h-1.1V57h1.1zM191.6 60c0 2.3-.6 3.3-2.1 3.3-1.3 0-2-1-2-3.3 0-2.2.8-3.1 2-3.1 1.5 0 2.1 1 2.1 3.1zm-2.9 0c0 1.5.2 2.4.9 2.4s.9-.8.9-2.4c0-1.4-.2-2.2-.9-2.2s-.9.8-.9 2.2zM96.1 28c-4.4 0-8-2.4-8-7.6 0-4.8 3.2-7.7 8.3-7.7 2 0 4.1.6 5.1.6 0 .3.1.9.1 1.3 0 1.1-.2 2.9-.3 3.3h-.6c0-3-1.6-4.1-4.3-4.1-3.6 0-5.8 2.6-5.8 6.6 0 4.1 2.5 6.5 5.9 6.5 2.6 0 3.9-1.5 4.4-3.3h.6c0 .8-.2 2.4-.6 3.3-1.2.7-2.8 1.1-4.8 1.1zM104.2 20.5c0-4.8 3.4-7.8 7.9-7.8 4.6 0 7.7 3.1 7.7 7.5 0 4.7-3.5 7.7-7.8 7.7-4.8.1-7.8-3-7.8-7.4zm13-.1c0-3.4-1.6-6.6-5.5-6.6-3.5 0-5.1 2.8-5.1 6.5 0 3.5 1.7 6.7 5.5 6.7 3.6-.1 5.1-3.1 5.1-6.6zM125 15.9h-.1v7.7c0 3.2.2 3.4 1.2 3.5l1 .1v.5h-5.7v-.5l1-.1c1-.1 1.2-.4 1.2-3.5v-8.2c0-1.2-.6-1.7-1.6-1.8l-.7-.1V13h3.6c.3 0 .8.4 1.3.9 2.3 2.5 5.7 6.5 8.3 9.7h.1l-.1-7c0-2.6-.3-2.9-1.2-3l-1-.1V13h5.5v.5l-.9.1c-1 .1-1.1.6-1.1 3.5v10.6c-.2.1-.6.2-.9.2-2.8-3.8-5.8-7.4-9.9-12zM138.3 27.7v-.5c1.2-.3 1.6-.5 2.3-2l5.3-12.3c.2-.1.4-.1.5-.1.9 2.3 4.7 12.1 5.5 13.4.5.8.9.9 1.6 1v.5h-6.3v-.5h.8c.9-.1 1.2-.3 1.2-.8 0-.4-.2-1-.6-2.1l-.6-1.7h-4.9l-.5 1.3c-.3.8-.8 2-.8 2.4 0 .6.4.7 1.9.9v.5h-5.4zm7.3-11h-.1c-.6 1.5-1.4 3.4-2 4.9h4.1l-2-4.9zM154.8 27.2l1-.1c.9-.1 1-.5 1-3.5v-6.5c0-3-.2-3.4-1-3.5l-1-.1V13c1.5-.1 4.2-.1 5.5-.1 3.2 0 4.8 1.3 4.8 3.4 0 1.6-1.3 2.8-2.7 3.2v.1c2.2.3 3.7 1.5 3.7 3.6 0 2.6-2.2 4.4-5.6 4.4h-5.6v-.4zm5.5-7.8c1.7-.1 2.4-1.2 2.4-2.7 0-1.8-.9-2.7-2.2-2.7-.5 0-1.1.1-1.4.2v5.3l1.2-.1zm3.3 4.4c0-1.9-1.1-3.5-3.1-3.5h-1.4v3.3c0 3 .3 3.2 1.6 3.2 1.6 0 2.9-1 2.9-3zM167.9 27.7v-.5l1-.1c.9-.1 1-.5 1-3.5v-6.5c0-3-.2-3.4-1-3.5l-1-.1V13h6.3v.5l-1 .1c-.9.1-1 .5-1 3.5v6.5c0 3 .1 3.4 1 3.5l1 .1v.5h-6.3zM176.1 20.5c0-4.8 3.4-7.8 7.9-7.8 4.6 0 7.7 3.1 7.7 7.5 0 4.7-3.5 7.7-7.8 7.7-4.8.1-7.8-3-7.8-7.4zm13-.1c0-3.4-1.6-6.6-5.5-6.6-3.5 0-5.1 2.8-5.1 6.5 0 3.5 1.7 6.7 5.5 6.7 3.6-.1 5.1-3.1 5.1-6.6zM108.2 33.7c-11.1 0-20.1-.2-20.1-.5s9-.5 20.1-.5H136v1.1h-27.8zM171.6 32.7c11.1 0 20.1.2 20.1.5s-9 .5-20.1.5h-27.8v-1.1h27.8z"/></svg>
